<svg x="0" y="0" width="48" height="48" version="1.1" xmlns="http://www.w3.org/2000/svg" xmlns:xlink="http://www.w3.org/1999/xlink"><defs><linearGradient x1="13.89921" y1="11.68966" x2="55.31399" y2="57.52354" gradientUnits="userSpaceOnUse" id="color-1"><stop offset="0" stop-color="#000000" stop-opacity="0.33"></stop><stop offset="1" stop-color="#000000" stop-opacity="0"></stop></linearGradient><filter id="dropshadow"><feColorMatrix type="matrix" values="0 0 0 0 .05  0 0 0 0 .15  0 0 0 0 .1  0 0 0 .8 0"></feColorMatrix> <feOffset dx="0" dy="1"></feOffset> <feGaussianBlur stdDeviation="1"></feGaussianBlur> <feComposite in="SourceGraphic"></feComposite></filter></defs><g fill="none" stroke="none" stroke-width="none" stroke-linecap="butt" stroke-linejoin="miter" stroke-miterlimit="none" stroke-dasharray="" stroke-dashoffset="0" font-family="none" font-weight="normal" font-size="none" text-anchor="start" mix-blend-mode="normal"><g fill="#000000" stroke="none" stroke-width="1" stroke-miterlimit="4" font-family="&quot;Open Sans&quot;, sans-serif" font-size="14"></g><path d="M3,24c0,-11.59798 9.40202,-21 21,-21c11.59798,0 21,9.40202 21,21c0,11.59798 -9.40202,21 -21,21c-11.59798,0 -21,-9.40202 -21,-21z" fill="#3f51b5" stroke-width="1" stroke-miterlimit="10" font-family="sans-serif" font-size="12" filter="url(#dropshadow)"></path><path d="M26.25682,44.88015c0,0 -12.35761,-12.35761 -12.35761,-12.35761l0,-1.2626l0.00001,0.00001l2.5252,-2.5252l3.78779,3.78779l0.00001,0l-3.7878,-3.7878l0,-6.31299c0,-3.88249 2.06434,-7.12105 5.68169,-7.97962l0,-0.85857c0,-1.04796 0.84594,-1.8939 1.8939,-1.8939c0.52398,0 0.99745,0.21149 1.33993,0.55397l18.5402,18.5402c-2.58776,7.58556 -9.39502,13.21715 -17.62331,14.09632z" fill="url(#color-1)" stroke-width="1" stroke-miterlimit="10" font-family="sans-serif" font-size="12"></path><path d="M34.10079,31.25994l0,1.2626l-20.20158,0l0,-1.2626l2.5252,-2.5252l0,-6.31299c0,-3.88249 2.06435,-7.12106 5.68169,-7.97962l0,-0.85857c0,-1.04796 0.84594,-1.8939 1.8939,-1.8939c1.04796,0 1.8939,0.84594 1.8939,1.8939l0,0.85857c3.61735,0.85857 5.68169,4.09713 5.68169,7.97962l0,6.31299z M21.4748,33.78514l5.05039,0c0,1.39517 -1.13003,2.5252 -2.5252,2.5252c-1.39517,0 -2.5252,-1.13003 -2.5252,-2.5252z" fill="#ffffff" stroke="none" stroke-width="0" stroke-miterlimit="4" font-family="&quot;Open Sans&quot;, sans-serif" font-size="14"></path></g></svg>