<svg width="512" height="512" viewBox="0 0 512 512" fill="none" xmlns="http://www.w3.org/2000/svg">
<path fill-rule="evenodd" clip-rule="evenodd" d="M52.9663 280.422L450.68 48.1128C456.591 44.66 463.826 49.7439 462.581 56.4755L397.527 408.233C396.61 413.19 391.393 416.074 386.708 414.213L299.287 379.502C296.005 378.199 292.255 379.203 290.063 381.972L226.964 461.676C223.012 466.668 215.096 465.268 213.096 459.224L173.013 338.103C172.222 335.713 170.352 333.834 167.965 333.033L54.4544 294.914C47.9412 292.726 47.0335 283.887 52.9663 280.422ZM230.257 343.806L218.257 421.806L189.257 333.306L383.757 137.306L230.257 343.806ZM245.757 359.306L279.757 372.806L235.257 427.806L245.757 359.306Z" fill="#75C9E3"/>
</svg>
