<svg width="512" height="512" viewBox="0 0 512 512" fill="none" xmlns="http://www.w3.org/2000/svg">
<g clip-path="url(#clip0_301_60)">
<path d="M13.7379 395.306C19.738 388.806 25.338 397.306 31.738 403.306C38.138 409.306 47.2379 412.306 40.2379 420.806C33.2379 429.306 26.5836 420.584 21.2379 414.806C15.7864 408.914 6.29991 403.364 13.7379 395.306Z" fill="#75C9E3"/>
<path d="M59.2379 437.806C66.2379 427.306 74 438.47 81.2379 442.806C88.4759 447.143 102.238 449.306 95.2379 460.806C88.2379 472.306 78.7379 460.806 72.7379 456.806C66.7378 452.806 53.1551 446.93 59.2379 437.806Z" fill="#75C9E3"/>
<path d="M119.238 469.143C123.137 461.202 133 465.97 141.238 467.306C149.476 468.643 163.738 467.806 161.738 479.306C159.738 490.806 146.238 486.806 137.238 483.806C128.238 480.806 114.738 478.306 119.238 469.143Z" fill="#75C9E3"/>
<path d="M185.238 478.806C184.738 468.806 191.738 470.806 197.238 469.306C202.738 467.806 208.238 464.806 210.238 473.306C212.238 481.806 205.738 483.47 202.238 484.806C198.738 486.143 185.785 489.758 185.238 478.806Z" fill="#75C9E3"/>
<path d="M217.738 470.806C213.95 459.806 222.738 460.306 232.738 455.806C242.738 451.306 247.238 445.306 253.238 453.806C259.238 462.306 246.238 467.806 240.738 470.806C235.238 473.806 221.526 481.806 217.738 470.806Z" fill="#75C9E3"/>
<path fill-rule="evenodd" clip-rule="evenodd" d="M97.9663 259.422L495.68 27.1128C501.591 23.66 508.826 28.7439 507.581 35.4755L442.527 387.233C441.61 392.19 436.393 395.074 431.708 393.213L344.287 358.502C341.005 357.199 337.255 358.203 335.063 360.972L271.964 440.676C268.012 445.668 260.096 444.268 258.096 438.224L218.013 317.103C217.222 314.713 215.352 312.834 212.965 312.033L99.4544 273.914C92.9412 271.726 92.0335 262.887 97.9663 259.422ZM275.257 322.806L263.257 400.806L234.257 312.306L428.757 116.306L275.257 322.806ZM290.757 338.306L324.757 351.806L280.257 406.806L290.757 338.306Z" fill="#75C9E3"/>
</g>
<defs>
<clipPath id="clip0_301_60">
<rect width="512" height="512" fill="white"/>
</clipPath>
</defs>
</svg>
