<svg width="48" height="48" xmlns="http://www.w3.org/2000/svg"><defs><linearGradient x1="13.899" y1="11.69" x2="55.314" y2="57.524" gradientUnits="userSpaceOnUse" id="b"><stop offset="0" stop-opacity=".33"/><stop offset="1" stop-opacity="0"/></linearGradient><filter id="a"><feColorMatrix values="0 0 0 0 .05 0 0 0 0 .15 0 0 0 0 .1 0 0 0 .8 0"/><feOffset dy="1"/><feGaussianBlur stdDeviation="1"/><feComposite in="SourceGraphic"/></filter></defs><g fill="none" stroke-width="none" stroke-miterlimit="none" font-family="none" font-size="none"><path d="M3 24C3 12.402 12.402 3 24 3s21 9.402 21 21-9.402 21-21 21S3 35.598 3 24z" fill="#3f51b5" font-family="sans-serif" font-size="12" filter="url(#a)"/><path d="M26.257 44.88L13.899 32.523V31.26l2.525-2.525 3.788 3.788-3.788-3.788v-6.313c0-3.883 2.065-7.121 5.682-7.98v-.858c0-1.048.846-1.894 1.894-1.894.524 0 .997.211 1.34.554l18.54 18.54C41.292 38.369 34.485 44 26.257 44.88z" fill="url(#b)" font-family="sans-serif" font-size="12"/><path d="M34.1 31.26v1.263H13.9V31.26l2.524-2.525v-6.313c0-3.883 2.065-7.121 5.682-7.98v-.858c0-1.048.846-1.894 1.894-1.894s1.894.846 1.894 1.894v.858c3.617.859 5.682 4.097 5.682 7.98v6.313zm-12.625 2.525h5.05a2.525 2.525 0 1 1-5.05 0z" fill="#fff" font-family="&quot;Open Sans&quot;, sans-serif" font-size="14"/></g></svg>